# Blender v3.6.4 OBJ File: 'cactus.blend'
# www.blender.org
mtllib cactus.mtl
o Cube
v 1.000000 1.000000 -1.000000
v 1.000000 -1.000000 -1.000000
v 1.000000 1.000000 1.000000
v 1.000000 -1.000000 1.000000
v -1.000000 1.000000 -1.000000
v -1.000000 -1.000000 -1.000000
v -1.000000 1.000000 1.000000
v -1.000000 -1.000000 1.000000
v 1.000000 2.868599 1.000000
v -1.000000 2.868599 1.000000
v 1.000000 2.868599 -1.000000
v -1.000000 2.868599 -1.000000
v 1.000000 1.000000 1.612271
v -1.000000 1.000000 1.612271
v 1.000000 2.868599 1.612271
v -1.000000 2.868599 1.612271
v 1.000000 1.000000 2.916466
v -1.000000 1.000000 2.916466
v 1.000000 2.868599 2.916466
v -1.000000 2.868599 2.916466
v 1.024893 0.963009 2.905703
v -0.975107 0.963009 2.905703
v 1.024893 2.831608 2.905703
v -0.975107 2.831608 2.905703
v 1.000000 4.271767 1.612271
v -1.000000 4.271767 1.612271
v 1.000000 4.271767 2.916466
v -1.000000 4.271767 2.916466
v -1.000000 1.000000 -1.540449
v 1.000000 1.000000 -1.540449
v -1.000000 2.868599 -1.540449
v 1.000000 2.868599 -1.540449
v -1.000000 1.000000 -2.807809
v 1.000000 1.000000 -2.807809
v -1.000000 2.868599 -2.807809
v 1.000000 2.868599 -2.807809
v -1.000000 3.882051 -1.540449
v 1.000000 3.882051 -1.540449
v -1.000000 3.882051 -2.807809
v 1.000000 3.882051 -2.807809
v 1.000000 5.429725 1.000000
v -1.000000 5.429725 1.000000
v 1.000000 5.429725 -1.000000
v -1.000000 5.429725 -1.000000
vt 0.625000 0.250000
vt 0.625000 0.000000
vt 0.625000 0.000000
vt 0.625000 0.250000
vt 0.375000 0.750000
vt 0.625000 0.750000
vt 0.625000 1.000000
vt 0.375000 1.000000
vt 0.375000 0.000000
vt 0.375000 0.250000
vt 0.125000 0.500000
vt 0.375000 0.500000
vt 0.125000 0.750000
vt 0.625000 0.500000
vt 0.625000 0.000000
vt 0.625000 0.250000
vt 0.625000 0.500000
vt 0.625000 0.750000
vt 0.625000 0.250000
vt 0.625000 0.500000
vt 0.625000 0.000000
vt 0.625000 0.000000
vt 0.625000 0.000000
vt 0.625000 0.000000
vt 0.875000 0.750000
vt 0.875000 0.750000
vt 0.625000 0.750000
vt 0.625000 0.750000
vt 0.625000 1.000000
vt 0.625000 0.750000
vt 0.625000 0.750000
vt 0.625000 0.750000
vt 0.625000 0.750000
vt 0.625000 1.000000
vt 0.625000 0.750000
vt 0.625000 0.750000
vt 0.625000 1.000000
vt 0.625000 1.000000
vt 0.875000 0.750000
vt 0.875000 0.750000
vt 0.625000 0.000000
vt 0.625000 0.000000
vt 0.875000 0.750000
vt 0.875000 0.750000
vt 0.625000 0.000000
vt 0.625000 0.000000
vt 0.625000 0.500000
vt 0.625000 0.500000
vt 0.625000 0.500000
vt 0.625000 0.250000
vt 0.875000 0.500000
vt 0.875000 0.500000
vt 0.625000 0.250000
vt 0.625000 0.250000
vt 0.625000 0.500000
vt 0.625000 0.500000
vt 0.875000 0.500000
vt 0.875000 0.500000
vt 0.625000 0.250000
vt 0.625000 0.250000
vt 0.625000 0.500000
vt 0.875000 0.500000
vt 0.875000 0.750000
vt 0.625000 0.750000
vn -1.0000 0.0000 0.0000
vn 0.0000 0.0000 1.0000
vn 0.0000 -1.0000 0.0000
vn 1.0000 0.0000 0.0000
vn 0.0000 0.0000 -1.0000
vn 0.0000 1.0000 0.0000
vn -0.3969 0.0000 -0.9179
vn 0.0000 -0.2794 0.9602
vn 0.3969 0.0000 0.9179
vn 0.0000 0.2794 -0.9602
usemtl Material
s off
f 5/1/1 7/2/1 10/3/1 12/4/1
f 4/5/2 3/6/2 7/7/2 8/8/2
f 8/9/1 7/2/1 5/1/1 6/10/1
f 6/11/3 2/12/3 4/5/3 8/13/3
f 2/12/4 1/14/4 3/6/4 4/5/4
f 6/10/5 5/1/5 1/14/5 2/12/5
f 12/4/1 10/3/1 42/15/1 44/16/1
f 3/6/4 1/14/4 11/17/4 9/18/4
f 1/14/3 5/1/3 29/19/3 30/20/3
f 10/3/1 7/2/1 14/21/1 16/22/1
f 16/22/1 14/21/1 18/23/1 20/24/1
f 9/18/6 10/25/6 16/26/6 15/27/6
f 3/6/4 9/18/4 15/27/4 13/28/4
f 7/7/3 3/6/3 13/28/3 14/29/3
f 17/30/7 19/31/7 23/32/7 21/33/7
f 14/29/3 13/28/3 17/30/3 18/34/3
f 13/28/4 15/27/4 19/31/4 17/30/4
f 19/31/4 15/27/4 25/35/4 27/36/4
f 22/37/2 21/33/2 23/32/2 24/38/2
f 19/31/8 20/39/8 24/40/8 23/32/8
f 20/24/9 18/23/9 22/41/9 24/42/9
f 18/34/10 17/30/10 21/33/10 22/37/10
f 25/35/6 26/43/6 28/44/6 27/36/6
f 16/22/1 20/24/1 28/45/1 26/46/1
f 20/39/2 19/31/2 27/36/2 28/44/2
f 15/27/5 16/26/5 26/43/5 25/35/5
f 32/47/4 30/20/4 34/48/4 36/49/4
f 5/1/1 12/4/1 31/50/1 29/19/1
f 12/51/6 11/17/6 32/47/6 31/52/6
f 11/17/4 1/14/4 30/20/4 32/47/4
f 34/48/5 33/53/5 35/54/5 36/49/5
f 32/47/4 36/49/4 40/55/4 38/56/4
f 29/19/1 31/50/1 35/54/1 33/53/1
f 30/20/3 29/19/3 33/53/3 34/48/3
f 37/57/6 38/56/6 40/55/6 39/58/6
f 36/49/5 35/54/5 39/59/5 40/55/5
f 35/54/1 31/50/1 37/60/1 39/59/1
f 31/52/2 32/47/2 38/56/2 37/57/2
f 43/61/6 44/62/6 42/63/6 41/64/6
f 10/25/2 9/18/2 41/64/2 42/63/2
f 11/17/5 12/51/5 44/62/5 43/61/5
f 9/18/4 11/17/4 43/61/4 41/64/4
